<svg xmlns="http://www.w3.org/2000/svg" width="75" height="75" viewBox="0 0 75 75">
  <g id="Group_395" data-name="Group 395" transform="translate(-150 -285)">
    <g id="lock" transform="translate(174.5 255)">
      <path id="Path_11" data-name="Path 11" d="M37.5,0A37.5,37.5,0,1,1,0,37.5,37.5,37.5,0,0,1,37.5,0Z" transform="translate(-24.5 30)" fill="#fbeefe"/>
    </g>
    <g id="Group_324" data-name="Group 324" transform="translate(-1321.229 1519.5)">
      <g id="Group_323" data-name="Group 323" transform="translate(1498 -1209)">
        <g id="Group_316" data-name="Group 316">
          <g id="Rectangle_343" data-name="Rectangle 343" fill="none" stroke="#461aa3" stroke-width="1">
            <rect width="16.875" height="27" rx="2" stroke="none"/>
            <rect x="0.5" y="0.5" width="15.875" height="26" rx="1.5" fill="none"/>
          </g>
          <circle id="Ellipse_182" data-name="Ellipse 182" cx="1.688" cy="1.688" r="1.688" transform="translate(6.75 20.25)" fill="#461aa3"/>
        </g>
      </g>
      <g id="comment" transform="translate(1504.75 -1205.479)">
        <g id="Union_5" data-name="Union 5" fill="#fbeefe">
          <path d="M 7.634550094604492 12.01112747192383 L 7.634250164031982 12.01067733764648 C 7.633590221405029 12.01067733764648 7.633120059967041 12.01057815551758 7.632999897003174 12.01053810119629 L 5.264830112457275 9.25712776184082 L 5.115210056304932 9.083197593688965 L 4.885779857635498 9.083197593688965 L 1.000800013542175 9.083197593688965 C 0.7246599793434143 9.083197593688965 0.5 8.85894775390625 0.5 8.583297729492188 L 0.5 0.9998977184295654 C 0.5 0.7242476940155029 0.7246599793434143 0.4999977052211761 1.000800013542175 0.4999977052211761 L 20.37509918212891 0.4999977052211761 C 20.65074920654297 0.4999977052211761 20.875 0.7242476940155029 20.875 0.9998977184295654 L 20.875 8.583297729492188 C 20.875 8.85894775390625 20.65074920654297 9.083197593688965 20.37509918212891 9.083197593688965 L 10.38271999359131 9.083197593688965 L 10.15328979492188 9.083197593688965 L 10.00366973876953 9.25712776184082 L 7.634550094604492 12.01112747192383 Z" stroke="none"/>
          <path d="M 7.634251594543457 11.24477672576904 L 9.923870086669922 8.583197593688965 L 20.375 8.583297729492188 L 20.37509918212891 0.9999977350234985 L 1 0.9998977184295654 L 1.000800013542175 8.583197593688965 L 5.344629764556885 8.583197593688965 L 7.634251594543457 11.24477672576904 M 7.634250164031982 12.51067733764648 C 7.494530200958252 12.51067733764648 7.354800224304199 12.45284748077393 7.254899978637695 12.33719730377197 L 4.885779857635498 9.583197593688965 L 1.000800013542175 9.583197593688965 C 0.448199987411499 9.583197593688965 0 9.134997367858887 0 8.583297729492188 L 0 0.9998977184295654 C 0 0.4481977224349976 0.448199987411499 -2.284851007061661e-06 1.000800013542175 -2.284851007061661e-06 L 20.37509918212891 -2.284851007061661e-06 C 20.92770004272461 -2.284851007061661e-06 21.375 0.4481977224349976 21.375 0.9998977184295654 L 21.375 8.583297729492188 C 21.375 9.134997367858887 20.92770004272461 9.583197593688965 20.37509918212891 9.583197593688965 L 10.38271999359131 9.583197593688965 L 8.01360034942627 12.33719730377197 C 7.913700103759766 12.45284748077393 7.773980140686035 12.51067733764648 7.634250164031982 12.51067733764648 Z" stroke="none" fill="#461aa3"/>
        </g>
      </g>
      <text id="_" data-name="****" transform="translate(1509.375 -1196.5)" fill="#461aa3" font-size="7" font-family="ReadexPro-Regular, Readex Pro Deca" letter-spacing="0.025em"><tspan x="0" y="0">****</tspan></text>
    </g>
  </g>
</svg>
