<svg xmlns="http://www.w3.org/2000/svg" xmlns:xlink="http://www.w3.org/1999/xlink" width="325.303" height="272.26" viewBox="0 0 325.303 272.26">
  <defs>
    <filter id="Rectangle_276" x="92.431" y="96.264" width="131.633" height="130.289" filterUnits="userSpaceOnUse">
      <feOffset dy="3" input="SourceAlpha"/>
      <feGaussianBlur stdDeviation="3" result="blur"/>
      <feFlood flood-opacity="0.161"/>
      <feComposite operator="in" in2="blur"/>
      <feComposite in="SourceGraphic"/>
    </filter>
  </defs>
  <g id="Group_404" data-name="Group 404" transform="translate(-19.269 -192.549)">
    <path id="Path_366" data-name="Path 366" d="M35.6,64.721c111.986,5.287,60.078,19.225,145.63-15.861s148.994,207.631,47.1,209.073-56.553-60.879-168.7,0S-76.381,59.434,35.6,64.721Z" transform="translate(63.778 185.94)" fill="#d7c4ff"/>
    <g id="congrats" transform="translate(33.012 218.528)">
      <ellipse id="Ellipse_101" data-name="Ellipse 101" cx="1.996" cy="2.024" rx="1.996" ry="2.024" transform="translate(232.065 66.212) rotate(-56.364)" fill="#b212ca"/>
      <ellipse id="Ellipse_102" data-name="Ellipse 102" cx="1.996" cy="2.524" rx="1.996" ry="2.524" transform="translate(217.302 -3.204) rotate(-56.364)" fill="#b212ca"/>
      <g id="Group_141" data-name="Group 141">
        <path id="Path_295" data-name="Path 295" d="M510.551,588.02H505.7l-2.31-18.727h7.166Z" transform="translate(-284.676 -346.824)" fill="#fdf0ff"/>
        <path id="Path_296" data-name="Path 296" d="M735.132,750.876H719.477v-.2a6.094,6.094,0,0,1,6.093-6.093h0l2.86-2.169,5.335,2.17h1.367Z" transform="translate(-508.019 -504.973)" fill="#b212ca"/>
        <path id="Path_297" data-name="Path 297" d="M691.722,552.294l-3.31,3.552-15.274-11.079,4.886-5.241Z" transform="translate(-387.419 -328.807)" fill="#fdf0ff"/>
        <path id="Path_298" data-name="Path 298" d="M945.977,706.322,935.3,717.773l-.145-.135a6.094,6.094,0,0,1-.3-8.612h0l.363-3.571,5.225-2.424.932-1Z" transform="translate(-637.388 -480.531)" fill="#b212ca"/>
        <path id="Path_299" data-name="Path 299" d="M805.831,587.914,800.7,598.647l-31.512-20.864-4.584-6.246-15.031-20.48-6.11,9.7-4.252,10.135h0a11.172,11.172,0,0,0-5,8.153l-.195,1.794,2.687,24.151-10.211,3.135-5.865-32.444,1.917-7.03,1.974-9.869,9.937-31.185h26.592l15.252,32.465,1.115,6.615,4.324,4.963Z" transform="translate(-508.712 -374.951)" fill="#461aa3"/>
        <path id="Path_300" data-name="Path 300" d="M767.916,398.341l4.476,3.409,5.4,1.659s2.232,31.393,4.243,33.4.2,2.065.6,4.677,1.386,7.967,1.386,7.967c-13.574,7.185-25.276,7.378-34.676-1.03a2.341,2.341,0,0,1,1.277-2.643c1.749-.928-1.613-5.261-.183-5.985s-.581-7.009-.581-7.009l1.319-13.112-1.042-2.1,2.543-12.825,4.413-1.612,1.763-4.248Z" transform="translate(-526.06 -296.721)" fill="#b212ca"/>
        <path id="Path_301" data-name="Path 301" d="M803.583,514.787a3.881,3.881,0,0,1,4.424-3.979l6.309-12.262,3.515,6.245L811.3,515.478a3.9,3.9,0,0,1-7.718-.69Z" transform="translate(-558.923 -357.371)" fill="#fdf0ff"/>
        <path id="Path_302" data-name="Path 302" d="M819.392,458.822l13.531-20.972-.045-.1c-.051-.111-3.115-6.728-6.084-12.79-.457-.933-.912-1.854-1.354-2.735q-.286-.571-.563-1.117c-1.247-2.458-2.336-4.49-2.987-5.456a11.454,11.454,0,0,0-6.069-4.6l-.063-.016-.06.025a5.812,5.812,0,0,0-3.459,6.394,41.171,41.171,0,0,0,7.639,17.272l2.194,2.891-7.623,16.573Z" transform="translate(-564.108 -304.405)" fill="#b212ca"/>
        <path id="Path_303" data-name="Path 303" d="M702.109,326.362a3.881,3.881,0,0,1-.931,5.877l2.821,13.5-6.663-2.638-1.657-12.414a3.9,3.9,0,0,1,6.43-4.324Z" transform="translate(-493.354 -252.333)" fill="#fdf0ff"/>
        <path id="Path_304" data-name="Path 304" d="M696.505,351.3l2.694,24.812.1.047c.079.039,3.492,1.713,7.682,3.707.707.336.606,1.793,1.344,2.142.509.24,1.853-.631,2.367-.39,4.58,2.142,9.211,4.224,11.057,4.789a11.454,11.454,0,0,0,7.614-.245l.059-.027.031-.057a5.812,5.812,0,0,0-1.339-7.145,41.17,41.17,0,0,0-16.811-8.607l-3.525-.865-4.514-17.675Z" transform="translate(-494.115 -268.247)" fill="#b212ca"/>
        <circle id="Ellipse_99" data-name="Ellipse 99" cx="8.854" cy="8.854" r="8.854" transform="translate(228.229 82.505)" fill="#fdf0ff"/>
        <path id="Path_305" data-name="Path 305" d="M760.442,351.5c.728-2.118,4.353-3.588,10.229-3.792s7.367,6.721,7.367,6.721c3.923,3.182-4.189,11.7-4.581,11.4l.176-1.6c.292-2.651,1.534-4.72-.045-7.483l-1.516.017-5.875,1.13,2.318-2.041-.065-.1a8.971,8.971,0,0,1-3.165.961,3.391,3.391,0,0,1-3.205-1.519,2.551,2.551,0,0,1-.286-.971,5.165,5.165,0,0,0-2.449,2.743A31.766,31.766,0,0,1,760.442,351.5Z" transform="translate(-532.149 -266.071)" fill="#c4a5c8"/>
        <ellipse id="Ellipse_103" data-name="Ellipse 103" cx="3.496" cy="4.024" rx="3.496" ry="4.024" transform="translate(237.688 214.073) rotate(-56.364)" fill="#eceef0"/>
      </g>
      <ellipse id="Ellipse_104" data-name="Ellipse 104" cx="2.109" cy="2.428" rx="2.109" ry="2.428" transform="matrix(-0.545, -0.839, 0.839, -0.545, 286.483, 100.295)" fill="#b212ca"/>
      <ellipse id="Ellipse_105" data-name="Ellipse 105" cx="3.496" cy="4.024" rx="3.496" ry="4.024" transform="translate(122.257 14.573) rotate(-56.364)" fill="#b212ca"/>
      <ellipse id="Ellipse_164" data-name="Ellipse 164" cx="2.496" cy="2.606" rx="2.496" ry="2.606" transform="translate(83.629 15.704) rotate(21)" fill="#b212ca"/>
      <ellipse id="Ellipse_165" data-name="Ellipse 165" cx="1.496" cy="2.606" rx="1.496" ry="2.606" transform="translate(17.629 22.704) rotate(21)" fill="#b212ca"/>
      <ellipse id="Ellipse_162" data-name="Ellipse 162" cx="3.496" cy="4.024" rx="3.496" ry="4.024" transform="translate(-13.743 54.573) rotate(-56.364)" fill="#b212ca"/>
      <g id="Group_142" data-name="Group 142">
        <path id="Path_306" data-name="Path 306" d="M324.241,357.78a4.746,4.746,0,0,0-.387-.434c.034-.046.067-.1.1-.143Z" transform="translate(-288.566 -271.822)" fill="#2f2e41"/>
        <path id="Path_307" data-name="Path 307" d="M289.674,391.093c-1.448,2.573-4.341,4.008-7.208,4.712a18.011,18.011,0,0,1-9.8-.189c-.4-.13-.808-.282-1.2-.451a10.338,10.338,0,0,0,.446-1.537,10.54,10.54,0,0,0,.219-2.152,6.791,6.791,0,0,1-1.225,1.688,6.2,6.2,0,0,1-1.284,1.032,12.611,12.611,0,0,1-3.726-3.461c.063-.156.126-.312.185-.467a16.794,16.794,0,0,0,.724-2.5,17.1,17.1,0,0,0,.358-3.5,10.992,10.992,0,0,1-2,2.745,8.938,8.938,0,0,1-.766.728,10.075,10.075,0,0,1,.606-7.751c1.667-3.082,4.9-4.914,7.781-6.905s5.768-4.686,6.013-8.185c.164-2.362-.931-4.728-.493-7.053a5.449,5.449,0,0,1,9.255-2.8,22.457,22.457,0,0,0-3.92,7.465c-.674,2.8-.122,6.093,2.088,7.949a12.554,12.554,0,0,1,2.274,1.895c.779,1.061.783,2.476.909,3.781.253,2.539,1.082,4.981,1.528,7.495A11.241,11.241,0,0,1,289.674,391.093Z" transform="translate(-252.278 -269.523)" fill="#c4a5c8"/>
        <path id="Path_308" data-name="Path 308" d="M19.519,555.468l3.843,2.969,13.281-13.409-5.672-4.382Z" transform="translate(-11.814 -329.485)" fill="#fdf0ff"/>
        <path id="Path_309" data-name="Path 309" d="M242.33,706.039l6.355,4.331-2.011,2.6,2.693,8.451a2.054,2.054,0,0,1-3.214,2.25l-7.232-5.588.743-3.537-2.476,2.2-2.727-2.107Z" transform="translate(-234.461 -482.957)" fill="#b212ca"/>
        <path id="Path_310" data-name="Path 310" d="M303.369,362.51a9.172,9.172,0,1,0,15.776-6.362l-.044-.044c-.073-.077-.147-.154-.224-.227h0a0,0,0,0,1,0,0c-.1-.088-.191-.176-.29-.26-1.614-1.416-3.883-2.953-6.2-2.953C307.319,352.659,303.369,357.443,303.369,362.51Z" transform="translate(-276.168 -269.072)" fill="#b212ca"/>
        <path id="Path_311" data-name="Path 311" d="M389.414,360.931a3.36,3.36,0,0,1-3.638,3.647l-22.713,20.508-3.909-6.173L382.709,360.7a3.378,3.378,0,0,1,6.7.235Z" transform="translate(-309.932 -272.203)" fill="#fdf0ff"/>
        <path id="Path_312" data-name="Path 312" d="M339.408,410.028s.845,1.561,3.732-.849c2.311-1.929,13.383-10.306,15.768-13.738a2.64,2.64,0,0,0,3.108-.9l-6.536-5.724c-1.955.225-1.914,1.539-1.71,2.285l-4.93,2.234-12.73,8.136,2.667,7.442Z" transform="translate(-295.985 -290.955)" fill="#b212ca"/>
        <path id="Path_313" data-name="Path 313" d="M77.411,337.52l-.476,2.267-.4,8.362,17.8.978-.553-12.862-1.725-2.834Z" transform="translate(-46.321 -204.068)" fill="#fdf0ff"/>
        <circle id="Ellipse_100" data-name="Ellipse 100" cx="7.691" cy="7.691" r="7.691" transform="translate(30.942 87.869)" fill="#fdf0ff"/>
        <path id="Path_314" data-name="Path 314" d="M297.664,426.7l-.047-6.393a10.175,10.175,0,0,1,7.88-9.918l.029-.007,1.521-2.049,6.179.618,1.133,2.315,4.477,2.666,1.724,5.542a6.554,6.554,0,0,1,2.832,4.389c.585,3.738-2.032,7.479-2.344,7.908l-.8,4.518-17.452,3.079-.142.018Z" transform="translate(-272.687 -302.766)" fill="#b212ca"/>
        <path id="Path_315" data-name="Path 315" d="M329.039,366.914a26.215,26.215,0,0,1-2.787,1.537,16.037,16.037,0,0,1-3.04,1.1,10.506,10.506,0,0,0-1.095-1.865,6.784,6.784,0,0,1,.008,2.084,10.858,10.858,0,0,1-5.183-.425l-1.448-2.429-.109,2.712c-1.2.219-2.4.425-3.6.64-.072.008-.143.025-.211.038a10.114,10.114,0,0,1,2.661-9.3,8.465,8.465,0,0,1,8.893-1.726c.19.076.383.16.568.248a0,0,0,0,0,0,0h0c.109.055.2.185.324.173C329.283,359.116,329.452,363.192,329.039,366.914Z" transform="translate(-280.994 -272.725)" fill="#c4a5c8"/>
        <path id="Path_316" data-name="Path 316" d="M89.3,530.309l3.849,2.961L106.4,519.834l-5.68-4.37Z" transform="translate(-54.047 -314.243)" fill="#fdf0ff"/>
        <path id="Path_317" data-name="Path 317" d="M313,681.594l6.363,4.318-2.006,2.607,2.71,8.445a2.054,2.054,0,0,1-3.209,2.256l-7.243-5.573.736-3.539-2.471,2.2-2.731-2.1Z" transform="translate(-277.248 -468.161)" fill="#b212ca"/>
        <path id="Path_318" data-name="Path 318" d="M278.537,556.133v-.05l1.824-3.143-1.863-4.092-.056-10.512.3-1.578a13.276,13.276,0,0,0-.344-6.379h0l-.034-6.4c-.065-1.6,2.418-3.013,1.839-4.349-5.474-12.632,5.589-22.268,5.664-22.345l.226-.235,1.227.929h1.168l15.755,2.871.114.212a24.994,24.994,0,0,1,1.887,6.982c.785.909,9.729,11.259,10.524,11.978,5.373,4.861,8.449,12.908,9.8,17.271a6.93,6.93,0,0,1-1.187,6.372l-20.34,22.279-5.474-5.053,11.006-20.055-.794-2.035a6.254,6.254,0,0,1-3.646-2.118l-2.229-2.645a4.946,4.946,0,0,1-1.129-2.573l-1.351-.163-4.841-5.083-3.359,30.416-.913,2.4-15.9,18.695-6.737-4.211Z" transform="translate(-255.777 -356.466)" fill="#461aa3"/>
        <path id="Path_319" data-name="Path 319" d="M279.8,313.885a3.36,3.36,0,0,0,1.036,5.047l-5.056,14.97,4.129,15.864,6.658-3.01L282.46,334.79l3.074-17.417a3.378,3.378,0,0,0-5.731-3.488Z" transform="translate(-259.471 -244.82)" fill="#fdf0ff"/>
        <path id="Path_320" data-name="Path 320" d="M283.538,395.226s-1.564.84-2.651-2.76c-.871-2.882-6.8-18.529-6.9-22.708a2.639,2.639,0,0,1-2.1-2.461l8.606-1.191c1.51,1.263.753,2.337.173,2.848l2.931,4.965,6.126,13.4-5.041,7.318Z" transform="translate(-257.111 -277.211)" fill="#b212ca"/>
        <path id="Path_321" data-name="Path 321" d="M312.468,371.063A15.645,15.645,0,0,1,324.513,360.6c.011,0,.048-.018.1-.04.029-.018.066-.037.1-.055-.11-.062-.216-.117-.327-.173h0a0,0,0,0,1,0,0c-.1-.088-.191-.176-.29-.26l-.279.011S314.013,358.523,312.468,371.063Z" transform="translate(-281.675 -273.523)" fill="#b212ca"/>
        <ellipse id="Ellipse_106" data-name="Ellipse 106" cx="3.496" cy="4.024" rx="3.496" ry="4.024" transform="translate(79.25 161.064) rotate(-56.364)" fill="#eceef0"/>
      </g>
      <path id="Path_322" data-name="Path 322" d="M510.415,763.366h-256.7a.47.47,0,1,1,0-.94h256.7a.47.47,0,1,1,0,.94Z" transform="translate(-245.83 -517.085)" fill="#ccc"/>
      <circle id="Ellipse_107" data-name="Ellipse 107" cx="3.158" cy="3.158" r="3.158" transform="translate(49.351 31.455)" fill="#b212ca"/>
      <circle id="Ellipse_163" data-name="Ellipse 163" cx="3.158" cy="3.158" r="3.158" transform="translate(291.351 46.455)" fill="#b212ca"/>
      <g id="Group_25" data-name="Group 25" transform="translate(-151.243 -70.499)">
        <ellipse id="Ellipse_92" data-name="Ellipse 92" cx="65" cy="2.256" rx="65" ry="2.256" transform="translate(228 312.268)" fill="#dedede"/>
        <path id="Path_607" data-name="Path 607" d="M385.547,154.208H384.4V122.821a18.166,18.166,0,0,0-18.166-18.166h-66.5a18.166,18.166,0,0,0-18.166,18.166V295.013a18.166,18.166,0,0,0,18.166,18.166h66.5A18.166,18.166,0,0,0,384.4,295.013V176.55h1.146Z" transform="translate(-36.815 0.345)" fill="#3f3d56"/>
        <path id="Path_608" data-name="Path 608" d="M391.55,133.333V305.271a13.567,13.567,0,0,1-13.566,13.567H311.166A13.567,13.567,0,0,1,297.6,305.272V133.333a13.567,13.567,0,0,1,13.566-13.567h8.106a6.448,6.448,0,0,0,5.968,8.879h38.1a6.448,6.448,0,0,0,5.968-8.879h8.678a13.567,13.567,0,0,1,13.567,13.566Z" transform="translate(-47.831 -10.04)" fill="#fff"/>
        <path id="Path_609" data-name="Path 609" d="M209.2,414.385h-1.405l.469-27.448h.469Z" transform="translate(71.437 -160.913)" fill="rgba(178,18,202,0.14)"/>
        <path id="Path_611" data-name="Path 611" d="M326.157,414.385h-1.405l.469-27.448h.469Z" transform="translate(-8.94 -160.913)" fill="rgba(178,18,202,0.14)"/>
        <circle id="Ellipse_95" data-name="Ellipse 95" cx="19.77" cy="19.77" r="19.77" transform="translate(277.047 256.046)" fill="#ebfff4" opacity="0.2"/>
      </g>
    </g>
    <g id="Group_296" data-name="Group 296" transform="translate(-5.927 185.41)">
      <g transform="matrix(1, 0, 0, 1, 25.2, 7.14)" filter="url(#Rectangle_276)">
        <g id="Rectangle_276-2" data-name="Rectangle 276" transform="translate(101.43 102.26)" fill="#fff" stroke="#efc4ff" stroke-width="1">
          <rect width="113.633" height="112.289" rx="6" stroke="none"/>
          <rect x="0.5" y="0.5" width="112.633" height="111.289" rx="5.5" fill="none"/>
        </g>
      </g>
      <path id="Path_212" data-name="Path 212" d="M589.358,393.115H505.3a3.329,3.329,0,0,1,0-6.658h84.053a3.329,3.329,0,0,1,0,6.658Z" transform="translate(-363.965 -252.837)" fill="#efc4ff"/>
      <path id="Path_213" data-name="Path 213" d="M599.006,359.115H562.8a3.329,3.329,0,1,1,0-6.658h36.2a3.329,3.329,0,0,1,0,6.658Z" transform="translate(-397.539 -232.941)" fill="#efc4ff"/>
      <path id="Path_214" data-name="Path 214" d="M541.006,441.115H504.8a3.329,3.329,0,1,1,0-6.658h36.2a3.329,3.329,0,0,1,0,6.658Z" transform="translate(-363.673 -280.924)" fill="#efc4ff"/>
      <path id="Path_215" data-name="Path 215" d="M541.006,476.115H504.8a3.329,3.329,0,0,1,0-6.658h36.2a3.329,3.329,0,0,1,0,6.658Z" transform="translate(-363.673 -301.405)" fill="#efc4ff"/>
      <path id="Path_216" data-name="Path 216" d="M541.006,511.115H504.8a3.329,3.329,0,1,1,0-6.658h36.2a3.329,3.329,0,0,1,0,6.658Z" transform="translate(-363.673 -321.885)" fill="#efc4ff"/>
      <ellipse id="Ellipse_44" data-name="Ellipse 44" cx="6.212" cy="6.212" rx="6.212" ry="6.212" transform="translate(216.27 150.62)" fill="#b212ca"/>
      <path id="Path_395" data-name="Path 395" d="M700.543,441.451a.644.644,0,0,1-.388-.129l-.007-.005-1.46-1.117a.649.649,0,0,1,.79-1.03l.945.725,2.235-2.915a.648.648,0,0,1,.909-.12h0l-.014.019.014-.019a.649.649,0,0,1,.12.909L701.06,441.2a.649.649,0,0,1-.516.253Z" transform="translate(-478.676 -282.25)" fill="#fff"/>
      <ellipse id="Ellipse_44-2" data-name="Ellipse 44" cx="6.212" cy="6.212" rx="6.212" ry="6.212" transform="translate(216.27 165.139)" fill="#b212ca"/>
      <path id="Path_395-2" data-name="Path 395" d="M700.543,476.451a.643.643,0,0,1-.388-.129l-.007-.005-1.46-1.117a.649.649,0,0,1,.79-1.03l.945.725,2.235-2.915a.648.648,0,0,1,.909-.12h0l-.014.019.014-.019a.649.649,0,0,1,.12.91L701.06,476.2a.649.649,0,0,1-.516.253Z" transform="translate(-478.676 -302.73)" fill="#fff"/>
      <path id="Path_615" data-name="Path 615" d="M385.317,549.5v38.474c0,7.8-6.074,14.129-13.567,14.13H304.933c-7.493,0-13.567-6.326-13.567-14.13V553.254a62.188,62.188,0,0,1,93.951-3.751Z" transform="translate(-153.902 -332.25)" fill="#ebfff4"/>
      <ellipse id="Ellipse_44-3" data-name="Ellipse 44" cx="6.212" cy="6.212" rx="6.212" ry="6.212" transform="translate(216.27 179.687)" fill="#b212ca"/>
      <path id="Path_395-3" data-name="Path 395" d="M700.543,511.522a.644.644,0,0,1-.387-.129l-.007-.005-1.46-1.117a.649.649,0,1,1,.789-1.03l.945.725,2.235-2.915a.648.648,0,0,1,.909-.12h0l-.014.019.014-.019a.649.649,0,0,1,.12.909l-2.628,3.428a.649.649,0,0,1-.516.253Z" transform="translate(-478.676 -323.251)" fill="#fff"/>
      <circle id="Ellipse_96" data-name="Ellipse 96" cx="25.361" cy="25.361" r="25.361" transform="translate(159.233 205.885)" fill="#08ac72"/>
      <path id="Path_616" data-name="Path 616" d="M250.481,546.469l-10.334-13.286,6.01-4.674,4.893,6.291,16.529-17.448,5.528,5.236Z" transform="translate(-72.738 -299.743)" fill="#fff"/>
    </g>
    <g id="Group_289" data-name="Group 289" transform="translate(55.17 192.549)">
      <path id="Path_600" data-name="Path 600" d="M32.117,62.08h0a1.667,1.667,0,0,1,1.754-1.1,5.522,5.522,0,0,0,.941.045c7.846-.461,17.565,4.031,27.911,10.184h0c-9.471-7.663-18.139-14.443-28.334-7.476a1.513,1.513,0,0,1-2.184-.452,1.435,1.435,0,0,1-.13-1.067q.018-.068.042-.136h0Z" transform="translate(-32.026 -40.999)" fill="#e6e6e6"/>
      <path id="Path_601" data-name="Path 601" d="M160.292,8.068h0a1.667,1.667,0,0,1,.7,1.9l-.024.079a3.038,3.038,0,0,1-1.31,1.679c-8.922,5.554,1.408,12.662-15.1,24.136h0c8-8.556,14.573-28.37,15.572-27.885a1.686,1.686,0,0,1,.169.095h0Z" transform="translate(-107.869 -5.368)" fill="#e6e6e6"/>
      <path id="Path_602" data-name="Path 602" d="M173.874,116.023h0a1.667,1.667,0,0,1-1.8.917l-.081-.015a3.038,3.038,0,0,1-1.823-1.1c-6.574-8.2-12.406,2.9-25.758-12.132h0c9.445,6.924,29.9,11.1,29.536,12.152a1.682,1.682,0,0,1-.074.179h0Z" transform="translate(-107.776 -69.889)" fill="#e6e6e6"/>
      <path id="Path_603" data-name="Path 603" d="M162.809,117.039h0a1.6,1.6,0,0,1-1.34-.043l-.05-.023a2.267,2.267,0,0,1-.99-.814c-2.8-4.54-8.62-1.594-14.605-10.2h0c4.906,4.679,17.494,10.708,17.066,11.028a.711.711,0,0,1-.081.052h0Z" transform="translate(-108.727 -71.418)" fill="#e6e6e6"/>
      <path id="Path_604" data-name="Path 604" d="M165.78,84.126h0a1.6,1.6,0,0,1-.92.975l-.051.022a2.267,2.267,0,0,1-1.265.2c-5.257-.911-6.907,5.4-17.318,4.174h0c6.756-.572,19.614-6,19.57-5.468a.717.717,0,0,1-.015.1h0Z" transform="translate(-108.998 -56.614)" fill="#e6e6e6"/>
      <path id="Path_605" data-name="Path 605" d="M44.385,121.7h0a1.667,1.667,0,0,1,.275-2l.059-.058a3.038,3.038,0,0,1,1.945-.868c10.485-.714,4.7-11.841,24.669-14.217h0c-11.077,3.8-26.188,18.2-26.842,17.307a1.686,1.686,0,0,1-.105-.163h0Z" transform="translate(-40.211 -70.471)" fill="#e6e6e6"/>
      <path id="Path_606" data-name="Path 606" d="M150.658,123.637h0a.987.987,0,0,1-1.217-.094l-.037-.034a1.907,1.907,0,0,1-.6-1.171c-.837-6.461-7.319-2.463-9.526-14.728h0c2.72,6.711,11.989,15.518,11.473,15.956a1.015,1.015,0,0,1-.094.071Z" transform="translate(-104.317 -72.53)" fill="#e6e6e6"/>
      <path id="Path_607-2" data-name="Path 607" d="M131.358,138.041h0a1.278,1.278,0,0,1-1.244-.943l-.017-.062a2.383,2.383,0,0,1,.157-1.653c3.519-7.412-6.187-7.675-.17-22.172h0c-1.666,8.98,2.278,24.712,1.423,24.819a1.3,1.3,0,0,1-.15.01Z" transform="translate(-96.759 -76.307)" fill="#b212ca"/>
      <path id="Path_608-2" data-name="Path 608" d="M71.574,123.53h0a1.278,1.278,0,0,1-.068-1.559l.037-.052a2.383,2.383,0,0,1,1.373-.933c7.953-2.018,1.964-9.66,16.966-14.275h0c-7.978,4.446-17.577,17.519-18.2,16.929a1.3,1.3,0,0,1-.1-.109h0Z" transform="translate(-58.479 -71.924)" fill="#b212ca"/>
      <path id="Path_609-2" data-name="Path 609" d="M86.606,117.87h0a.592.592,0,0,1-.041-.828l.023-.029a1.685,1.685,0,0,1,.871-.554c5.043-1.4,1.256-5.225,10.77-8.3h0c-5.062,2.7-11.161,10.055-11.558,9.766a.691.691,0,0,1-.065-.054h0Z" transform="translate(-68.686 -72.9)" fill="#b212ca"/>
      <path id="Path_610" data-name="Path 610" d="M107.879,125.539h0a.592.592,0,0,1-.329-.76l.012-.036a1.685,1.685,0,0,1,.621-.824c4.228-3.086-.661-5.333,7.165-11.557h0c-3.791,4.3-6.915,13.336-7.388,13.205a.688.688,0,0,1-.08-.028h0Z" transform="translate(-82.906 -75.733)" fill="#e6e6e6"/>
      <path id="Path_611-2" data-name="Path 611" d="M38.6,87.024l.769,2.367h2.489l-2.013,1.463.769,2.367L38.6,91.758l-2.013,1.463.769-2.367-2.013-1.463h2.489Z" transform="translate(-34.264 -58.655)" fill="#b212ca"/>
      <path id="Path_612" data-name="Path 612" d="M143.812,0l.769,2.367h2.489L145.056,3.83l.769,2.367-2.014-1.463L141.8,6.2l.769-2.367-2.014-1.463h2.489Z" transform="translate(-105.175)" fill="#e6e6e6"/>
      <path id="Path_613" data-name="Path 613" d="M199.664,77.932l.769,2.367h2.489l-2.013,1.463.769,2.367-2.014-1.463-2.013,1.463.769-2.367L196.406,80.3h2.489Z" transform="translate(-142.82 -52.527)" fill="#b212ca"/>
      <path id="Path_614" data-name="Path 614" d="M86.662,157.162l.769,2.367H89.92l-2.013,1.463.769,2.367L86.662,161.9l-2.013,1.463.769-2.367L83.4,159.529h2.489Z" transform="translate(-66.656 -105.929)" fill="#b212ca"/>
      <path id="Path_615-2" data-name="Path 615" d="M129.525,77.932l.769,2.367h2.489l-2.013,1.463.769,2.367-2.013-1.463-2.014,1.463.769-2.367L126.267,80.3h2.489Z" transform="translate(-95.546 -52.527)" fill="#b212ca"/>
      <path id="Path_616-2" data-name="Path 616" d="M188.468,0l.769,2.367h2.489L189.712,3.83l.769,2.367-2.013-1.463L186.454,6.2l.769-2.367L185.21,2.367H187.7Z" transform="translate(-135.274)" fill="#e6e6e6"/>
      <path id="Path_617" data-name="Path 617" d="M35.062,143.5l.975,2.29,2.479-.22-1.876,1.635.975,2.29-2.135-1.279L33.6,149.853l.557-2.426-2.135-1.279,2.479-.22Z" transform="translate(-32.026 -96.722)" fill="#e6e6e6"/>
      <path id="Path_618" data-name="Path 618" d="M106.351,9.142h0a.973.973,0,0,1,1.239.329l.032.045a2.28,2.28,0,0,1,.4,1.43c-.342,7.441,7.1,4.115,7.087,18.351h0c-1.555-8.066-9.483-19.691-8.869-20.092a1.062,1.062,0,0,1,.111-.063h0Z" transform="translate(-82.025 -6.093)" fill="#b212ca"/>
      <path id="Path_619" data-name="Path 619" d="M86.631,42.737h0a.577.577,0,0,1,.792-.107l.03.02a1.589,1.589,0,0,1,.6.781c1.731,4.671,5.117.761,8.8,9.538h0C93.871,48.386,86.337,43.2,86.585,42.8a.666.666,0,0,1,.047-.067h0Z" transform="translate(-68.795 -28.659)" fill="#e6e6e6"/>
      <path id="Path_620" data-name="Path 620" d="M69.163,83.74h0a.577.577,0,0,1,.6-.53H69.8a1.59,1.59,0,0,1,.932.317c4.036,2.92,4.676-2.213,12.613,3.038h0c-5.021-2.154-14.164-2.273-14.182-2.744a.663.663,0,0,1,0-.081h0Z" transform="translate(-57.055 -56.084)" fill="#e6e6e6"/>
    </g>
    <g id="Group_290" data-name="Group 290" transform="translate(259.916 203.333)">
      <path id="Path_621" data-name="Path 621" d="M414.755,123.078h0a1.085,1.085,0,0,1,1.141-.714,3.592,3.592,0,0,0,.612.029c5.105-.3,11.428,2.623,18.16,6.626h0c-6.162-4.986-11.8-9.4-18.435-4.864a.985.985,0,0,1-1.421-.294.934.934,0,0,1-.085-.695q.012-.044.027-.088Z" transform="translate(-414.696 -109.362)" fill="#e6e6e6"/>
      <path id="Path_622" data-name="Path 622" d="M498.151,87.936h0a1.085,1.085,0,0,1,.454,1.233l-.016.051a1.977,1.977,0,0,1-.852,1.093c-5.8,3.614.916,8.239-9.827,15.7h0c5.2-5.567,9.482-18.459,10.132-18.143a1.1,1.1,0,0,1,.11.062h0Z" transform="translate(-464.042 -86.18)" fill="#e6e6e6"/>
      <path id="Path_623" data-name="Path 623" d="M506.988,158.175h0a1.085,1.085,0,0,1-1.171.6l-.053-.01a1.977,1.977,0,0,1-1.186-.717c-4.277-5.335-8.072,1.887-16.759-7.894h0c6.145,4.5,19.454,7.223,19.217,7.906a1.1,1.1,0,0,1-.048.117h0Z" transform="translate(-463.982 -128.159)" fill="#e6e6e6"/>
      <path id="Path_624" data-name="Path 624" d="M499.789,158.837h0a1.037,1.037,0,0,1-.872-.028l-.033-.015a1.474,1.474,0,0,1-.644-.53c-1.823-2.954-5.609-1.037-9.5-6.636h0c3.192,3.045,11.382,6.967,11.1,7.175a.465.465,0,0,1-.053.034h0Z" transform="translate(-464.601 -129.154)" fill="#e6e6e6"/>
      <path id="Path_625" data-name="Path 625" d="M501.721,137.423h0a1.038,1.038,0,0,1-.6.635l-.033.014a1.475,1.475,0,0,1-.823.131c-3.42-.593-4.494,3.512-11.268,2.716h0c4.4-.372,12.761-3.9,12.733-3.558a.465.465,0,0,1-.01.062h0Z" transform="translate(-464.777 -119.522)" fill="#e6e6e6"/>
      <path id="Path_626" data-name="Path 626" d="M422.737,161.868h0a1.085,1.085,0,0,1,.179-1.3l.038-.038a1.976,1.976,0,0,1,1.266-.564c6.822-.465,3.06-7.7,16.051-9.25h0c-7.207,2.472-17.039,11.845-17.465,11.26a1.1,1.1,0,0,1-.068-.106Z" transform="translate(-420.021 -128.538)" fill="#e6e6e6"/>
      <path id="Path_627" data-name="Path 627" d="M491.883,163.13h0a.643.643,0,0,1-.792-.061l-.024-.022a1.24,1.24,0,0,1-.389-.762c-.545-4.2-4.762-1.6-6.2-9.583h0c1.77,4.367,7.8,10.1,7.465,10.382a.662.662,0,0,1-.061.046h0Z" transform="translate(-461.731 -129.878)" fill="#e6e6e6"/>
      <path id="Path_628" data-name="Path 628" d="M479.325,172.5h0a.832.832,0,0,1-.809-.613l-.011-.04a1.551,1.551,0,0,1,.1-1.075c2.29-4.822-4.025-4.993-.11-14.426h0c-1.084,5.843,1.482,16.079.926,16.148a.848.848,0,0,1-.1.006h0Z" transform="translate(-456.814 -132.335)" fill="#b212ca"/>
      <path id="Path_629" data-name="Path 629" d="M440.428,163.06h0a.832.832,0,0,1-.044-1.015l.024-.034a1.551,1.551,0,0,1,.893-.607c5.174-1.313,1.278-6.285,11.039-9.288h0c-5.191,2.893-11.437,11.4-11.845,11.014a.851.851,0,0,1-.067-.071Z" transform="translate(-431.908 -129.484)" fill="#b212ca"/>
      <path id="Path_630" data-name="Path 630" d="M450.208,159.378h0a.385.385,0,0,1-.027-.538l.015-.019a1.1,1.1,0,0,1,.567-.36c3.281-.913.817-3.4,7.007-5.4h0c-3.293,1.755-7.262,6.542-7.52,6.354a.444.444,0,0,1-.043-.035h0Z" transform="translate(-438.548 -130.118)" fill="#6c63ff"/>
      <path id="Path_631" data-name="Path 631" d="M464.049,164.367h0a.385.385,0,0,1-.214-.495l.008-.023a1.1,1.1,0,0,1,.4-.536c2.751-2.008-.43-3.47,4.662-7.52h0c-2.467,2.8-4.5,8.677-4.807,8.592a.447.447,0,0,1-.052-.018Z" transform="translate(-447.801 -131.962)" fill="#e6e6e6"/>
      <path id="Path_632" data-name="Path 632" d="M418.976,139.308l.5,1.54H421.1l-1.31.952.5,1.54-1.31-.952-1.31.952.5-1.54-1.31-.952h1.62Z" transform="translate(-416.152 -120.85)" fill="#b212ca"/>
      <path id="Path_633" data-name="Path 633" d="M487.429,82.687l.5,1.54h1.619l-1.31.952.5,1.54-1.31-.952-1.31.952.5-1.54-1.31-.952h1.619Z" transform="translate(-462.29 -82.687)" fill="#e6e6e6"/>
      <path id="Path_634" data-name="Path 634" d="M523.767,133.392l.5,1.54h1.619l-1.31.952.5,1.54-1.31-.952-1.31.952.5-1.54-1.31-.952h1.62Z" transform="translate(-486.782 -116.863)" fill="#b212ca"/>
      <path id="Path_635" data-name="Path 635" d="M450.245,184.943l.5,1.54h1.619l-1.31.952.5,1.54-1.31-.952-1.31.952.5-1.54-1.31-.952h1.619Z" transform="translate(-437.228 -151.609)" fill="#b212ca"/>
      <path id="Path_636" data-name="Path 636" d="M478.133,133.392l.5,1.54h1.619l-1.31.952.5,1.54-1.31-.952-1.31.952.5-1.54-1.31-.952h1.619Z" transform="translate(-456.025 -116.863)" fill="#b212ca"/>
      <path id="Path_637" data-name="Path 637" d="M516.483,82.687l.5,1.54h1.62l-1.31.952.5,1.54-1.31-.952-1.31.952.5-1.54-1.31-.952h1.619Z" transform="translate(-481.873 -82.687)" fill="#e6e6e6"/>
      <path id="Path_638" data-name="Path 638" d="M416.671,176.055l.635,1.49,1.613-.143-1.221,1.064.634,1.49-1.389-.832-1.221,1.064.362-1.578-1.389-.832,1.613-.143Z" transform="translate(-414.696 -145.618)" fill="#e6e6e6"/>
      <path id="Path_639" data-name="Path 639" d="M463.054,88.635h0a.633.633,0,0,1,.806.214l.021.029a1.484,1.484,0,0,1,.26.93c-.223,4.841,4.619,2.677,4.611,11.94h0c-1.012-5.248-6.17-12.812-5.77-13.073a.69.69,0,0,1,.072-.041Z" transform="translate(-447.227 -86.651)" fill="#b212ca"/>
      <path id="Path_640" data-name="Path 640" d="M450.224,110.493h0a.375.375,0,0,1,.515-.07l.02.013a1.034,1.034,0,0,1,.389.508c1.126,3.039,3.329.495,5.722,6.206h0c-1.936-2.981-6.838-6.353-6.677-6.614a.435.435,0,0,1,.031-.043h0Z" transform="translate(-438.619 -101.333)" fill="#e6e6e6"/>
      <path id="Path_641" data-name="Path 641" d="M438.859,137.171h0a.375.375,0,0,1,.39-.345h.023a1.034,1.034,0,0,1,.606.206c2.626,1.9,3.042-1.44,8.207,1.977h0c-3.267-1.4-9.216-1.479-9.227-1.785a.438.438,0,0,1,0-.053h0Z" transform="translate(-430.981 -119.177)" fill="#e6e6e6"/>
    </g>
  </g>
</svg>
