<svg xmlns="http://www.w3.org/2000/svg" width="61" height="61" viewBox="0 0 61 61">
  <g id="upload" transform="translate(-158.095 -400.432)">
    <circle id="Ellipse_28" data-name="Ellipse 28" cx="30.5" cy="30.5" r="30.5" transform="translate(158.095 400.432)" fill="#f8e9fa"/>
    <rect id="Rectangle_141" data-name="Rectangle 141" width="11.418" height="7.136" rx="1" transform="translate(186.525 428.312) rotate(-31)" fill="#fbeefe" stroke="#461aa3" stroke-linecap="round" stroke-linejoin="round" stroke-width="1"/>
    <line id="Line_8" data-name="Line 8" x2="11.418" transform="translate(187.995 430.759) rotate(-31)" fill="none" stroke="#461aa3" stroke-linecap="round" stroke-linejoin="round" stroke-width="1"/>
    <path id="folder" d="M20.81,17.048a1.881,1.881,0,0,1-1.881,1.881H3.881A1.881,1.881,0,0,1,2,17.048V4.881A1.881,1.881,0,0,1,3.881,3h4.7l1.881,2.821h8.464A1.881,1.881,0,0,1,20.81,7.7Z" transform="translate(176.095 424.036)" fill="#fbeefe" stroke="#461aa3" stroke-linecap="round" stroke-linejoin="round" stroke-width="1"/>
    <g id="upload-2" data-name="upload" transform="translate(184.85 433.982)">
      <path id="Path_9" data-name="Path 9" d="M8.3,15v1.178a.589.589,0,0,1-.589.589H3.589A.589.589,0,0,1,3,16.178V15" transform="translate(-3 -11.466)" fill="none" stroke="#461aa3" stroke-linecap="round" stroke-linejoin="round" stroke-width="1"/>
      <path id="Path_10" data-name="Path 10" d="M9.945,4.473,8.473,3,7,4.473" transform="translate(-5.822 -3)" fill="none" stroke="#461aa3" stroke-linecap="round" stroke-linejoin="round" stroke-width="1"/>
      <line id="Line_10" data-name="Line 10" y2="3.306" transform="translate(2.65 0.171)" fill="none" stroke="#461aa3" stroke-linecap="round" stroke-linejoin="round" stroke-width="1"/>
    </g>
  </g>
</svg>
