<svg xmlns="http://www.w3.org/2000/svg" width="21.2" height="21.2" viewBox="0 0 21.2 21.2">
  <g id="Group_425" data-name="Group 425" transform="translate(-24.2 -639.2)">
    <g id="Path_374" data-name="Path 374" transform="translate(24.2 639.2)" fill="none">
      <path d="M10.6,0A10.6,10.6,0,1,1,0,10.6,10.6,10.6,0,0,1,10.6,0Z" stroke="none"/>
      <path d="M 10.599853515625 1.500003814697266 C 5.582183837890625 1.500003814697266 1.500003814697266 5.582183837890625 1.500003814697266 10.599853515625 C 1.500003814697266 15.61752319335938 5.582183837890625 19.69970321655273 10.599853515625 19.69970321655273 C 15.61752319335938 19.69970321655273 19.69970321655273 15.61752319335938 19.69970321655273 10.599853515625 C 19.69970321655273 5.582183837890625 15.61752319335938 1.500003814697266 10.599853515625 1.500003814697266 M 10.599853515625 3.814697265625e-06 C 16.45399284362793 3.814697265625e-06 21.19970321655273 4.74571418762207 21.19970321655273 10.599853515625 C 21.19970321655273 16.45399284362793 16.45399284362793 21.19970321655273 10.599853515625 21.19970321655273 C 4.74571418762207 21.19970321655273 3.814697265625e-06 16.45399284362793 3.814697265625e-06 10.599853515625 C 3.814697265625e-06 4.74571418762207 4.74571418762207 3.814697265625e-06 10.599853515625 3.814697265625e-06 Z" stroke="none" fill="#08ac72"/>
    </g>
    <path id="check" d="M12.409,6,6.628,11.781,4,9.153" transform="translate(26.403 640.819)" fill="none" stroke="#08ac72" stroke-linecap="round" stroke-linejoin="round" stroke-width="2"/>
  </g>
</svg>
